<?xml version="1.0" standalone="no"?> <!DOCTYPE svg PUBLIC "-//W3C//DTD SVG 1.0//EN" "http://www.w3.org/TR/2001/REC-SVG-20010904/DTD/svg10.dtd" > <svg xmlns="http://www.w3.org/2000/svg" width="100%" height="100%">
<defs >
<font id="sbcakkrgpro1" horiz-adv-x="944" ><font-face
    font-family="SBCAkkuratPro"
    units-per-em="2048"
    panose-1="2 0 5 3 3 0 0 2 0 4"
    ascent="1604"
    descent="-445"
    alphabetic="0" />
<missing-glyph horiz-adv-x="1204" d="M180 0V1430H1024V0H180ZM334 152H870V1276H334V152Z" />
<glyph unicode=" " glyph-name="space" horiz-adv-x="471" />
<glyph unicode="!" glyph-name="exclam" horiz-adv-x="677" d="M475 993L432 440H313L266 993V1452H475V993ZM483 0H266V223H483V0Z" />
<glyph unicode="&quot;" glyph-name="quotedbl" horiz-adv-x="909" d="M725 1200L682 887H573L530 1200V1452H725V1200ZM379 1200L336 887H227L184 1200V1452H379V1200Z" />
<glyph unicode="#" glyph-name="numbersign" horiz-adv-x="1540" d="M1397 877H1118L1073 547H1329V389H1051L997 2H838L891 389H578L522 2H362L416 389H154V547H438L483 877H221V1036H506L559 1423H719L666 1036H979L1034 1423H1194L1141 1036H1397V877ZM958
877H643L598 547H911L958 877Z" />
<glyph unicode="$" glyph-name="dollar" horiz-adv-x="1146" d="M1098 418Q1098 260 979 141Q857 21 651 2V-184H532V2Q337 17 207 135Q138 198 100 283T61 467H242Q242 404 267 346T338 248Q414 178 532 162V659Q494 667 457 670Q300 689 199 786T98 1038Q98
1116 130 1188T219 1313Q346 1434 532 1450V1638H651V1448Q829 1429 944 1317Q1073 1191 1079 1020H897Q891 1133 823 1204Q754 1276 651 1290V823L713 815Q887 792 992 691T1098 418ZM532 836V1292Q406 1279 336 1202Q279 1139 279 1042Q279 954 332 905T473 844L532
836ZM918 414Q918 511 854 570T684 641L651 645V162Q772 174 844 244Q918 315 918 414Z" />
<glyph unicode="%" glyph-name="percent" horiz-adv-x="1882" d="M1749 365Q1749 209 1686 117Q1585 -27 1415 -27Q1244 -27 1145 117Q1081 211 1081 365Q1081 520 1145 614Q1244 758 1415 758Q1585 758 1686 614Q1749 522 1749 365ZM1528 1403L471 -43L360 41L1415
1483L1528 1403ZM791 1087Q791 934 727 840Q628 696 457 696Q287 696 186 840Q123 932 123 1087Q123 1245 186 1337Q287 1481 457 1481Q628 1481 727 1337Q791 1243 791 1087ZM1591 365Q1591 509 1532 571Q1485 621 1415 621Q1343 621 1296 571Q1237 509 1237 365Q1237
222 1296 160Q1342 111 1415 111Q1486 111 1532 160Q1591 222 1591 365ZM633 1087Q633 1231 573 1294Q529 1343 457 1343Q384 1343 338 1294Q279 1232 279 1087Q279 945 338 883Q384 834 457 834Q529 834 573 883Q633 946 633 1087Z" />
<glyph unicode="&amp;" glyph-name="ampersand" horiz-adv-x="1509" d="M1382 680H1233Q1233 573 1207 459T1133 276L1380 0H1159L1034 141Q960 57 851 15T621 -27Q428 -27 297 88T166 393Q166 506 220 600T371 756L442 801Q404 844 387 863T342 920T302 987T280
1056T270 1141Q270 1290 374 1384T637 1479Q801 1479 904 1386T1008 1135Q1008 1032 960 950T821 813Q803 803 769 781T717 748L1018 408Q1027 425 1034 445T1047 490T1056 536T1062 588T1066 637T1068 690T1069 738T1069 787T1069 829H1382V680ZM924 266L549 684L465
631Q405 591 373 531T340 397Q340 283 418 209T610 135Q713 135 790 164T924 266ZM838 1133Q838 1224 784 1277T633 1331Q547 1331 494 1279T440 1143Q440 1110 449 1079T480 1016T515 967T563 913T606 866Q613 870 640 884T675 904T706 923T737 944T764 966T790
992T809 1020T825 1053T834 1090T838 1133Z" />
<glyph unicode="&apos;" glyph-name="quotesingle" horiz-adv-x="542" d="M369 1200L326 887H217L174 1200V1452H369V1200Z" />
<glyph unicode="(" glyph-name="parenleft" horiz-adv-x="620" d="M590 -215L481 -291Q317 -106 227 149T137 659Q137 914 227 1169T481 1610L590 1534Q439 1335 364 1122T289 659Q289 411 364 198T590 -215Z" />
<glyph unicode=")" glyph-name="parenright" horiz-adv-x="620" d="M483 659Q483 405 393 150T139 -291L31 -215Q181 -15 256 198T332 659T257 1120T31 1534L139 1610Q303 1425 393 1170T483 659Z" />
<glyph unicode="*" glyph-name="asterisk" horiz-adv-x="1091" d="M979 1049L653 965L866 700L729 602L545 887L362 602L225 705L438 965L113 1049L166 1210L479 1087L463 1425H633L612 1087L928 1210L979 1049Z" />
<glyph unicode="+" glyph-name="plus" horiz-adv-x="1394" d="M1262 549H768V10H625V549H133V690H625V1196H768V690H1262V549Z" />
<glyph unicode="," glyph-name="comma" horiz-adv-x="602" d="M428 -2Q428 -121 382 -199T227 -324L174 -227Q251 -193 278 -144T305 -2H178V238H428V-2Z" />
<glyph unicode="-" glyph-name="hyphen" horiz-adv-x="894" d="M752 537H143V698H752V537Z" />
<glyph unicode="." glyph-name="period" horiz-adv-x="602" d="M422 0H180V244H422V0Z" />
<glyph unicode="/" glyph-name="slash" horiz-adv-x="817" d="M805 1479L174 -27H35L666 1479H805Z" />
<glyph unicode="0" glyph-name="zero" horiz-adv-x="1146" d="M1049 942T1049 713T1015 340T881 94Q758 -27 573 -27Q389 -27 266 94Q166 196 132 340T98 713T132 1087T266 1333Q385 1452 573 1452Q762 1452 881 1333Q981 1232 1015 1087ZM866 639T866 713T866
812T863 903T853 1001T834 1082T800 1165T750 1227Q682 1292 573 1292Q465 1292 397 1227Q356 1188 331 1134T295 1005T283 879T281 735Q281 720 281 713T281 691Q281 616 281 577T288 471T305 364T340 277T397 199Q466 133 573 133Q681 133 750 199Q779 227 800
261T833 343T853 423T862 522T865 613Z" />
<glyph unicode="1" glyph-name="one" horiz-adv-x="1146" d="M754 0H575V1225L238 977V1171L586 1423H754V0Z" />
<glyph unicode="2" glyph-name="two" horiz-adv-x="1146" d="M1001 0H147V150L723 860Q801 960 801 1065Q801 1174 740 1234T567 1294Q462 1294 394 1232T326 1036H145Q145 1222 260 1337T565 1452Q680 1452 769 1409T913 1288Q979 1194 979 1067Q979 913 858
764L375 164H1001V0Z" />
<glyph unicode="3" glyph-name="three" horiz-adv-x="1146" d="M1012 389Q1012 217 903 102Q779 -27 559 -27Q364 -27 233 102Q116 221 113 408H291Q297 280 365 211Q438 131 559 131Q693 131 766 213Q834 288 834 393Q834 520 755 588T541 657H455V819H541Q664
819 733 882T803 1059Q803 1160 735 1225Q666 1294 561 1294Q457 1294 387 1237Q304 1169 301 1036H123Q126 1238 260 1350Q386 1452 565 1452Q748 1452 868 1337Q983 1233 983 1059Q983 960 923 867T774 737Q884 700 948 602T1012 389Z" />
<glyph unicode="4" glyph-name="four" horiz-adv-x="1146" d="M1083 303H891V0H715V303H61V485L602 1423H786L229 461H715V885H891V461H1083V303Z" />
<glyph unicode="5" glyph-name="five" horiz-adv-x="1146" d="M1044 469Q1044 237 926 106Q803 -29 594 -29Q390 -29 264 94Q142 213 133 410H307Q313 281 387 207Q463 131 592 131Q727 131 799 223Q868 311 868 461Q868 616 788 705Q715 784 592 784Q518 784
456 752T356 659H162L201 1423H987V1266H350L328 811Q373 877 452 908T627 940Q804 940 918 823Q1044 692 1044 469Z" />
<glyph unicode="6" glyph-name="six" horiz-adv-x="1146" d="M1055 459Q1055 253 926 111Q798 -27 590 -27Q477 -27 388 22T242 150Q171 247 146 380T121 692Q121 880 141 1018T227 1260Q282 1346 376 1399T598 1452Q776 1452 893 1335Q1002 1226 1008 1079H831Q825
1176 752 1239Q688 1294 592 1294Q472 1294 397 1208Q365 1172 344 1121T314 1005T301 892T297 772Q330 845 420 891T612 938Q798 938 911 827Q981 761 1018 666T1055 459ZM879 457Q879 606 795 700Q724 782 594 782Q470 782 395 696Q315 607 315 457T399 217Q478
131 598 131Q720 131 795 213Q879 303 879 457Z" />
<glyph unicode="7" glyph-name="seven" horiz-adv-x="1146" d="M1016 1266L428 0H240L831 1266H102V1423H1016V1266Z" />
<glyph unicode="8" glyph-name="eight" horiz-adv-x="1146" d="M1034 391Q1034 241 940 129Q877 54 782 14T573 -27Q461 -27 366 13T207 129Q113 241 113 391Q113 506 174 601T336 741Q247 788 194 874T141 1063Q141 1228 258 1337Q382 1452 573 1452Q765 1452
889 1337Q1006 1227 1006 1063Q1006 961 953 875T811 741Q911 696 972 601T1034 391ZM829 1063Q829 1169 756 1233T573 1298T391 1234T317 1063Q317 960 386 889T573 817T760 888T829 1063ZM858 399Q858 516 782 591T573 666T365 591T289 399Q289 275 368 201T573
127T778 201T858 399Z" />
<glyph unicode="9" glyph-name="nine" horiz-adv-x="1146" d="M1034 733Q1034 545 1014 408T928 166Q873 79 779 26T557 -27Q376 -27 262 90Q154 200 147 346H324Q330 249 403 186Q466 131 563 131Q683 131 758 217Q790 253 811 304T841 420T854 533T858 653Q825
580 735 534T543 487Q357 487 244 598Q100 736 100 967Q100 1171 229 1315Q356 1452 565 1452Q678 1452 767 1403T913 1276Q984 1179 1009 1045T1034 733ZM840 969Q840 1118 756 1208Q677 1294 557 1294Q435 1294 360 1212Q276 1122 276 969Q276 819 360 725Q432
643 561 643Q685 643 760 729Q840 818 840 969Z" />
<glyph unicode=":" glyph-name="colon" horiz-adv-x="622" d="M442 809H217V1036H442V809ZM442 -2H217V223H442V-2Z" />
<glyph unicode=";" glyph-name="semicolon" horiz-adv-x="622" d="M442 807H217V1036H442V807ZM442 0Q442 -117 401 -188T258 -303L211 -213Q284 -181 309 -133T334 0H217V225H442V0Z" />
<glyph unicode="&lt;" glyph-name="less" horiz-adv-x="966" d="M844 74L745 -27L92 625L743 1274L844 1176L293 625L844 74Z" />
<glyph unicode="=" glyph-name="equal" horiz-adv-x="1417" d="M1202 705H215V862H1202V705ZM1202 274H215V432H1202V274Z" />
<glyph unicode="&gt;" glyph-name="greater" horiz-adv-x="966" d="M874 625L221 -27L123 74L674 625L123 1176L223 1274L874 625Z" />
<glyph unicode="?" glyph-name="question" horiz-adv-x="1032" d="M971 1096Q971 978 916 889T750 719Q656 651 630 595T604 438V387H436V444Q436 526 448 583T491 688T560 772T666 860Q731 911 761 964T791 1098Q791 1188 729 1253Q658 1327 541 1327Q412 1327
339 1244T266 1034H82Q82 1122 112 1202T198 1346T343 1447T541 1485Q721 1485 846 1379T971 1096ZM627 0H410V225H627V0Z" />
<glyph unicode="@" glyph-name="at" horiz-adv-x="1931" d="M1792 778Q1792 714 1782 651T1752 526T1697 410T1619 315T1512 251T1378 227Q1297 227 1243 266T1178 383Q1148 315 1078 273T932 231Q778 231 694 340T610 623Q610 803 710 922T987 1042Q1046 1042
1101 1013T1184 934L1206 1020H1343L1307 502Q1299 373 1391 373Q1442 373 1483 402T1551 475T1594 575T1619 681T1626 776Q1626 1016 1479 1163Q1315 1327 1028 1327Q750 1327 565 1161Q348 969 348 631Q348 490 395 367T530 154Q704 -23 975 -23Q1262 -23 1489
76V-74Q1280 -176 973 -176Q808 -176 669 -125T426 20Q305 132 240 294T174 649Q174 1018 412 1245Q528 1357 684 1418T1026 1479Q1201 1479 1349 1424T1602 1266Q1792 1078 1792 778ZM1163 666Q1163 769 1120 835T979 901Q926 901 887 876T826 808T794 719T784
623Q784 577 792 537T820 461T874 403T958 381Q1005 381 1041 398T1100 442T1137 507T1157 584T1163 666Z" />
<glyph unicode="A" glyph-name="A" horiz-adv-x="1271" d="M1255 0H1067L948 344H317L201 0H16L528 1452H741L1255 0ZM889 516L631 1270L375 516H889Z" />
<glyph unicode="B" glyph-name="B" horiz-adv-x="1368" d="M1266 406Q1266 251 1155 133Q1095 69 998 35T791 0H205V1452H784Q890 1452 985 1418T1139 1319Q1233 1213 1233 1077Q1233 969 1178 881T1024 756Q1134 720 1200 622T1266 406ZM1047 1063Q1047 1171
972 1230T784 1290H383V834H791Q910 834 978 890T1047 1063ZM1079 418Q1079 535 997 604T795 674H383V168H791Q918 168 998 231T1079 418Z" />
<glyph unicode="C" glyph-name="C" horiz-adv-x="1298" d="M1217 463Q1207 264 1073 127Q1004 58 901 15T684 -29Q574 -29 471 11T291 127Q183 233 146 377T109 725T146 1072T291 1323Q368 1399 471 1439T684 1479Q799 1479 901 1438T1071 1329Q1205 1191 1214
997H1026Q1023 1113 946 1200Q902 1249 834 1278T684 1307Q610 1307 541 1278T420 1196Q378 1152 351 1095T314 968T300 849T297 725T300 602T313 482T351 355T420 254Q471 201 540 172T684 143Q764 143 833 173T948 254Q1025 341 1028 463H1217Z" />
<glyph unicode="D" glyph-name="D" horiz-adv-x="1386" d="M1278 727Q1278 608 1266 515T1210 319T1092 145Q940 0 711 0H205V1452H711Q937 1452 1092 1305Q1149 1250 1187 1182T1245 1036T1271 886T1278 727ZM1094 727Q1094 797 1090 850T1075 967T1037 1087T969
1184Q919 1233 852 1258T711 1284H387V168H711Q784 168 851 193T969 268Q1045 347 1069 462T1094 727Z" />
<glyph unicode="E" glyph-name="E" horiz-adv-x="1280" d="M1176 0H205V1452H1176V1284H387V842H1079V670H387V168H1176V0Z" />
<glyph unicode="F" glyph-name="F" horiz-adv-x="1202" d="M1145 1284H387V811H1063V639H387V0H205V1452H1145V1284Z" />
<glyph unicode="G" glyph-name="G" horiz-adv-x="1392" d="M1241 0H1114L1083 174Q1029 84 920 28T688 -29Q448 -29 297 121Q192 223 151 369T109 725Q109 924 148 1070T297 1323Q374 1399 476 1439T688 1479Q812 1479 921 1437T1104 1315Q1221 1192 1229 1032H1038Q1030
1123 973 1192Q876 1307 688 1307Q532 1307 424 1196Q382 1152 355 1095T316 969T301 848T297 725Q297 658 301 604T317 481T357 352T428 248Q530 143 688 143Q853 143 952 244Q1077 365 1077 612H688V782H1241V0Z" />
<glyph unicode="H" glyph-name="H" horiz-adv-x="1470" d="M1266 0H1083V670H387V0H205V1452H387V846H1083V1452H1266V0Z" />
<glyph unicode="I" glyph-name="I" horiz-adv-x="595" d="M391 0H205V1452H391V0Z" />
<glyph unicode="J" glyph-name="J" horiz-adv-x="1009" d="M846 406Q846 207 738 90T436 -27Q254 -27 133 96Q16 216 16 440H201Q201 357 217 300T276 203Q339 143 436 143Q664 143 664 406V1452H846V406Z" />
<glyph unicode="K" glyph-name="K" horiz-adv-x="1355" d="M1329 0H1116L682 754L387 410V0H205V1452H387V678L1053 1452H1280L807 899L1329 0Z" />
<glyph unicode="L" glyph-name="L" horiz-adv-x="1114" d="M1085 0H205V1452H387V170H1085V0Z" />
<glyph unicode="M" glyph-name="M" horiz-adv-x="1802" d="M1597 0H1423V1225L973 20H829L379 1235V0H205V1452H467L905 270L1341 1452H1597V0Z" />
<glyph unicode="N" glyph-name="N" horiz-adv-x="1503" d="M1298 0H1094L381 1167V0H205V1452H410L1122 281V1452H1298V0Z" />
<glyph unicode="O" glyph-name="O" horiz-adv-x="1372" d="M1264 924T1264 725T1225 380T1077 127Q1000 51 898 11T686 -29T474 11T295 127Q186 233 148 379T109 725T147 1071T295 1323Q372 1399 474 1439T686 1479T898 1439T1077 1323Q1186 1217 1225 1071ZM1075
653T1075 725T1072 848T1058 968T1019 1094T950 1196Q899 1249 830 1277T686 1305Q528 1305 422 1196Q380 1152 353 1095T315 968T300 848T297 725T300 602T314 482T353 356T422 254Q528 145 686 145Q761 145 830 173T950 254Q992 298 1019 355T1057 482T1072 602Z"
/>
<glyph unicode="P" glyph-name="P" horiz-adv-x="1284" d="M1223 1014Q1223 805 1102 684T745 563H387V0H205V1452H743Q990 1452 1112 1321Q1223 1200 1223 1014ZM1034 1014Q1034 1149 956 1217T739 1286H387V729H741Q888 729 961 799T1034 1014Z" />
<glyph unicode="Q" glyph-name="Q" horiz-adv-x="1372" d="M1264 725Q1264 630 1257 555T1230 400T1173 253T1079 129L1210 -41L1090 -135L956 37Q827 -29 686 -29Q576 -29 474 11T295 127Q186 233 148 379T109 725T147 1071T295 1323Q372 1399 474 1439T686 1479T898
1439T1077 1323Q1186 1217 1225 1071T1264 725ZM1075 725Q1075 797 1072 848T1058 968T1019 1094T950 1196Q899 1249 830 1277T686 1305Q528 1305 422 1196Q380 1152 353 1095T315 968T300 848T297 725T300 602T314 482T353 356T422 254Q528 145 686 145Q765 145
846 180L674 401L793 494L967 272Q1003 316 1026 371T1059 492T1072 607T1075 725Z" />
<glyph unicode="R" glyph-name="R" horiz-adv-x="1355" d="M1264 0H1063L788 604H387V0H205V1452H774Q1017 1452 1143 1323Q1257 1201 1257 1028Q1257 857 1147 741Q1085 676 973 639L1264 0ZM1069 896T1069 1028T990 1222T774 1284H387V774H774Q911 774 990 835Z" />
<glyph unicode="S" glyph-name="S" horiz-adv-x="1300" d="M1198 399Q1198 237 1075 119Q1002 47 894 10T664 -27Q400 -27 248 113Q176 180 134 270T92 461H283Q283 398 311 337T385 231Q432 186 507 164T664 141Q843 141 934 225Q1008 292 1008 395Q1008 485
948 547T764 629L535 664Q361 690 254 786T147 1049Q147 1129 181 1204T274 1335Q427 1479 655 1479Q764 1479 862 1443T1032 1339Q1165 1212 1171 1028H981Q975 1134 909 1210Q822 1311 653 1311Q485 1311 395 1210Q336 1141 336 1053Q336 962 398 911T553 848Q601
842 690 828T795 811Q980 784 1089 676T1198 399Z" />
<glyph unicode="T" glyph-name="T" horiz-adv-x="1101" d="M1075 1282H643V0H459V1282H27V1452H1075V1282Z" />
<glyph unicode="U" glyph-name="U" horiz-adv-x="1388" d="M1225 532Q1225 264 1084 119T694 -27Q447 -27 306 118T164 532V1452H346V528Q346 143 694 143T1042 528V1452H1225V532Z" />
<glyph unicode="V" glyph-name="V" horiz-adv-x="1185" d="M1178 1452L688 0H498L8 1452H197L598 225L991 1452H1178Z" />
<glyph unicode="W" glyph-name="W" horiz-adv-x="1765" d="M1700 1452L1411 0H1217L885 1169L549 0H356L66 1452H236L467 268L803 1432H967L1303 270L1534 1452H1700Z" />
<glyph unicode="X" glyph-name="X" horiz-adv-x="1196" d="M1165 0H963L594 596L229 0H31L489 733L39 1452H242L606 864L965 1452H1159L707 733L1165 0Z" />
<glyph unicode="Y" glyph-name="Y" horiz-adv-x="1159" d="M1159 1452L672 590V0H487V590L0 1452H205L586 762L965 1452H1159Z" />
<glyph unicode="Z" glyph-name="Z" horiz-adv-x="1253" d="M1159 0H88V182L934 1282H96V1452H1151V1268L303 170H1159V0Z" />
<glyph unicode="[" glyph-name="bracketleft" horiz-adv-x="636" d="M586 -233H201V1550H586V1423H342V-106H586V-233Z" />
<glyph unicode="\" glyph-name="backslash" horiz-adv-x="819" d="M784 -27H641L10 1479H154L784 -27Z" />
<glyph unicode="]" glyph-name="bracketright" horiz-adv-x="636" d="M436 -233H51V-106H293V1423H51V1550H436V-233Z" />
<glyph unicode="^" glyph-name="asciicircum" horiz-adv-x="1110" d="M977 829H795L555 1290L313 829H133L477 1479H633L977 829Z" />
<glyph unicode="_" glyph-name="underscore" horiz-adv-x="1116" d="M1065 -123H51V0H1065V-123Z" />
<glyph unicode="`" glyph-name="grave" horiz-adv-x="491" d="M463 1225L399 1128L20 1331L113 1477L463 1225Z" />
<glyph unicode="a" glyph-name="a" horiz-adv-x="1144" d="M1059 10Q1010 -14 944 -14Q876 -14 836 30T795 143H791Q746 65 656 19T457 -27Q371 -27 302 0T189 73T123 175T100 293Q100 347 118 398T177 497T293 578T469 616L784 635V711Q784 820 731 868Q674 922
561 922Q435 922 373 860Q322 809 322 735H152Q155 863 242 952Q292 1006 377 1034T561 1063Q704 1063 795 1009T926 864Q956 794 956 705V203Q956 163 970 148T1014 133L1059 139V10ZM784 438V500L506 483Q448 480 400 462T315 402T279 297Q279 221 329 170T483
119Q616 119 696 203Q784 292 784 438Z" />
<glyph unicode="b" glyph-name="b" horiz-adv-x="1218" d="M1108 516Q1108 385 1070 273T958 86Q850 -27 666 -27Q574 -27 487 16T356 135L344 0H190V1479H365V915Q405 983 491 1023T666 1063Q840 1063 950 958Q1027 884 1067 768T1108 516ZM930 518Q930 579 922
633T893 740T840 830T756 891T637 915Q543 915 469 848Q354 746 354 518T469 188Q545 121 637 121Q720 121 779 155T870 249T916 375T930 518Z" />
<glyph unicode="c" glyph-name="c" horiz-adv-x="1089" d="M995 348Q984 193 874 86Q759 -27 575 -27Q328 -27 197 168Q111 294 111 518T197 868Q328 1063 573 1063Q755 1063 868 952Q980 845 991 686H815Q804 785 741 848Q675 911 573 911Q470 911 393 844Q289
755 289 518T393 193Q471 125 573 125Q683 125 750 195Q808 256 819 348H995Z" />
<glyph unicode="d" glyph-name="d" horiz-adv-x="1218" d="M1028 0H874L862 135Q819 60 732 17T553 -27Q370 -27 260 86Q188 160 150 272T111 516Q111 652 151 768T268 958Q380 1063 553 1063Q642 1063 728 1023T854 915V1479H1028V0ZM864 289T864 518T750 848Q676
915 582 915Q515 915 463 892T379 831T326 740T297 633T289 518Q289 441 303 375T348 250T439 156T582 121Q674 121 750 188Q864 289 864 518Z" />
<glyph unicode="e" glyph-name="e" horiz-adv-x="1128" d="M1026 565L1024 461H291Q291 389 318 318T391 201Q465 127 582 127Q709 127 774 195Q817 236 836 307H1006Q995 231 952 163T846 51Q728 -27 582 -27Q476 -27 388 14T238 129Q109 279 109 514Q109 713
188 846Q246 944 347 1003T580 1063Q772 1063 895 930Q958 861 992 765T1026 565ZM848 610Q848 735 784 821Q714 915 580 915Q490 915 424 870T328 757T295 610H848Z" />
<glyph unicode="f" glyph-name="f" horiz-adv-x="749" d="M739 1335Q723 1337 690 1342T629 1349T567 1352Q499 1352 460 1313T420 1210V1036H719V889H420V0H246V889H57V1036H246V1221Q246 1339 330 1419T547 1499Q636 1499 739 1481V1335Z" />
<glyph unicode="g" glyph-name="g" horiz-adv-x="1105" d="M1075 -154Q1075 -274 987 -362Q865 -483 569 -483Q296 -483 176 -362Q102 -288 102 -178Q102 -101 143 -42T250 51Q196 72 163 119T129 225Q129 291 167 344T266 426Q210 476 179 548T147 694Q147 845
246 946Q358 1063 553 1063Q689 1063 791 1001Q816 1070 872 1108T1004 1147Q1021 1147 1055 1143V1001Q1044 1004 1016 1004Q965 1004 931 979T889 909Q956 823 956 694Q956 550 862 446Q750 324 553 324Q462 324 379 352Q345 342 320 318T291 260Q289 234 299
215T324 186T362 169T404 161T446 158H651Q887 158 993 49Q1075 -33 1075 -154ZM786 594T786 694T723 858T551 922Q446 922 381 858T315 694Q315 593 378 528T551 463Q655 463 720 528ZM905 -154Q905 -124 898 -100T877 -59T845 -29T804 -10T757 2T707 8T656 10T605
10Q588 10 580 10H391Q336 -7 298 -52T260 -154Q260 -221 303 -262Q335 -294 387 -311T480 -331T580 -334Q789 -334 862 -260Q905 -217 905 -154Z" />
<glyph unicode="h" glyph-name="h" horiz-adv-x="1202" d="M1028 0H854V657Q854 779 800 842T627 905Q553 905 495 862T401 745Q365 666 365 481V0H190V1479H365V899Q409 977 493 1020T668 1063Q843 1063 935 964T1028 682V0Z" />
<glyph unicode="i" glyph-name="i" horiz-adv-x="559" d="M381 1274H178V1479H381V1274ZM369 0H190V1036H369V0Z" />
<glyph unicode="j" glyph-name="j" horiz-adv-x="579" d="M401 1274H199V1479H401V1274ZM389 -145Q389 -285 319 -361T104 -438Q33 -438 -31 -418V-268Q28 -279 98 -279Q154 -279 184 -241T215 -147V1036H389V-145Z" />
<glyph unicode="k" glyph-name="k" horiz-adv-x="1116" d="M1083 0H887L563 500L365 279V0H190V1479H365V514L834 1036H1044L676 627L1083 0Z" />
<glyph unicode="l" glyph-name="l" horiz-adv-x="595" d="M524 0Q485 -12 401 -12Q184 -12 184 242V1479H358V252Q358 197 379 171T453 145L524 147V0Z" />
<glyph unicode="m" glyph-name="m" horiz-adv-x="1798" d="M1624 0H1450V659Q1450 778 1403 841T1239 905Q1147 905 1081 836Q993 744 993 551V0H819V659Q819 779 773 842T610 905Q506 905 434 813Q399 768 382 696T365 551V0H190V1036H342L358 889Q398 973 477
1018T649 1063Q765 1063 844 1012T958 866Q999 959 1087 1011T1278 1063Q1449 1063 1536 961T1624 682V0Z" />
<glyph unicode="n" glyph-name="n" horiz-adv-x="1198" d="M1028 0H854V657Q854 779 800 842T627 905Q553 905 495 862T401 745Q365 666 365 481V0H190V1036H342L356 881Q395 965 485 1014T670 1063Q845 1063 936 964T1028 682V0Z" />
<glyph unicode="o" glyph-name="o" horiz-adv-x="1142" d="M1032 796T1032 518T885 94Q761 -27 571 -27Q382 -27 258 94Q111 238 111 518T258 942Q382 1063 571 1063Q761 1063 885 942Q1032 796 1032 518ZM854 296T854 518T758 840Q685 913 571 913Q458 913 385
840Q289 741 289 518Q289 294 385 197Q459 123 571 123Q684 123 758 197Q854 296 854 518Z" />
<glyph unicode="p" glyph-name="p" horiz-adv-x="1218" d="M1108 518Q1108 382 1068 266T950 76Q840 -29 666 -29Q577 -29 491 11T365 119V-444H190V1034H344L356 899Q399 975 486 1018T666 1061Q850 1061 958 948Q1031 874 1069 762T1108 518ZM930 516Q930 577
922 631T893 738T840 828T756 889T637 913Q543 913 469 846Q354 744 354 516T469 186Q545 119 637 119Q720 119 779 153T870 247T916 373T930 516Z" />
<glyph unicode="q" glyph-name="q" horiz-adv-x="1218" d="M1028 -444H854V119Q814 51 728 11T553 -29Q380 -29 268 76Q191 150 151 266T111 518Q111 649 149 761T260 948Q370 1061 553 1061Q645 1061 732 1018T862 899L874 1034H1028V-444ZM864 287T864 516T750
846Q676 913 582 913Q515 913 463 890T379 829T326 738T297 631T289 516Q289 439 303 373T348 248T439 154T582 119Q674 119 750 186Q864 287 864 516Z" />
<glyph unicode="r" glyph-name="r" horiz-adv-x="786" d="M750 866Q709 874 653 874Q542 874 457 793Q362 703 362 461V0H190V1036H344L358 854Q397 946 481 994T668 1042Q710 1042 750 1036V866Z" />
<glyph unicode="s" glyph-name="s" horiz-adv-x="1067" d="M958 301Q958 174 877 90Q763 -27 539 -27Q323 -27 203 90Q155 136 129 199T102 328H276Q280 226 360 166Q424 119 547 119T737 176Q759 194 773 224T788 289Q788 348 747 387T627 436L393 467Q274 486
207 557T139 745Q139 802 163 856T225 948Q277 1002 356 1032T530 1063Q636 1063 722 1030T860 932Q934 842 934 733H760Q759 771 742 806T700 862Q638 918 530 918Q459 918 410 897Q361 877 333 839T305 758Q305 642 444 623Q462 620 546 609T694 588Q809 569
883 492T958 301Z" />
<glyph unicode="t" glyph-name="t" horiz-adv-x="788" d="M727 14Q617 -14 520 -14Q455 -14 405 2T324 44T272 108T244 183T236 266V887H35V1036H236V1300L410 1341V1036H717V887H410V287Q410 212 443 179T549 145Q582 145 626 149T699 159L727 164V14Z" />
<glyph unicode="u" glyph-name="u" horiz-adv-x="1191" d="M1001 0H850L836 158Q797 72 710 24T528 -25Q354 -25 264 74T174 356V1036H348V381Q348 259 399 196T569 133Q666 133 741 211Q827 300 827 498V1036H1001V0Z" />
<glyph unicode="v" glyph-name="v" horiz-adv-x="995" d="M971 1036L596 0H408L25 1036H207L506 205L795 1036H971Z" />
<glyph unicode="w" glyph-name="w" horiz-adv-x="1570" d="M1493 1036L1225 0H1057L786 793L510 0H344L78 1036H250L449 254L713 1024H862L1122 254L1323 1036H1493Z" />
<glyph unicode="x" glyph-name="x" horiz-adv-x="1019" d="M985 0H776L504 408L233 0H35L387 528L39 1036H244L514 645L774 1036H975L625 528L985 0Z" />
<glyph unicode="y" glyph-name="y" horiz-adv-x="1019" d="M999 1036L532 -213Q492 -321 427 -377T252 -434Q169 -434 94 -414V-262Q150 -279 217 -279Q334 -279 373 -174L438 0L25 1036H221L526 219L817 1036H999Z" />
<glyph unicode="z" glyph-name="z" horiz-adv-x="1026" d="M928 0H109V154L711 885H109V1036H922V883L322 152H928V0Z" />
<glyph unicode="{" glyph-name="braceleft" horiz-adv-x="714" d="M694 -244H639Q464 -244 392 -158T319 104V424Q319 560 113 580V727Q160 733 204 749T283 802T319 887V1202Q319 1294 333 1356T383 1464T482 1531T639 1552H692V1423H639Q534 1423 498 1374T461
1214V885Q461 792 411 737T268 664V659Q354 638 407 582T461 442V113Q461 63 469 24T497 -47T553 -97T641 -115H694V-244Z" />
<glyph unicode="|" glyph-name="bar" horiz-adv-x="550" d="M346 -244H205V1552H346V-244Z" />
<glyph unicode="}" glyph-name="braceright" horiz-adv-x="714" d="M602 580Q395 560 395 424V104Q395 -71 323 -157T76 -244H20V-115H74Q126 -115 162 -98T217 -48T245 24T254 113V442Q254 526 307 582T446 659V664Q354 681 304 736T254 885V1214Q254 1325 218
1374T76 1423H23V1552H76Q170 1552 232 1531T330 1464T380 1356T395 1202V887Q395 839 430 803T510 750T602 727V580Z" />
<glyph unicode="~" glyph-name="asciitilde" horiz-adv-x="1308" d="M1155 637Q1063 542 998 510T854 477Q758 477 614 547Q612 548 590 559T562 572T537 582T508 592T483 597T453 600Q402 600 359 582T254 500L154 614Q244 709 309 741T455 774Q530 774 618 739Q644
729 696 705T774 672Q820 655 854 655Q905 655 948 673T1053 754L1155 637Z" />
</font>
</defs>
</svg>
